<svg version="1.1" id="Layer_1" xmlns="http://www.w3.org/2000/svg" xmlns:xlink="http://www.w3.org/1999/xlink" x="0px" y="0px"
	 width="100%" viewBox="0 0 1024 400" enable-background="new 0 0 1024 400" xml:space="preserve">
<path fill="#000000" opacity="1.000000" stroke="none" 
	d="
M546.336670,371.529999 
	C532.827637,373.570343 519.652283,372.940613 506.510010,373.113098 
	C499.681732,373.202728 492.849487,373.200378 486.021759,373.082123 
	C471.350494,372.828064 456.109039,359.670288 452.532318,345.446991 
	C449.327026,332.700653 447.924957,319.665833 445.206512,306.844879 
	C441.920013,291.344635 450.744934,275.577698 465.677795,270.563049 
	C472.603882,268.237213 480.089691,266.522064 487.705078,266.895264 
	C489.287537,266.972870 491.310303,267.273163 491.927124,265.170441 
	C492.462982,263.343811 490.721619,262.520630 489.602051,261.694702 
	C485.048492,258.335449 481.767700,253.417648 475.152191,252.659927 
	C471.077515,252.193222 470.219513,247.725128 470.903198,243.737717 
	C471.590546,239.728943 474.469238,238.212143 478.106140,238.196304 
	C481.978882,238.179428 485.566528,239.992035 485.643585,243.999252 
	C485.804901,252.388092 493.153717,254.721237 497.529327,259.544403 
	C498.522980,260.639709 499.888428,260.216217 501.264923,259.959717 
	C505.826630,259.109680 510.353271,257.841187 515.092896,258.405182 
	C515.848267,258.495056 517.059692,258.334106 517.393311,257.839355 
	C521.250427,252.119659 528.215942,248.279785 527.848877,239.976120 
	C527.644043,235.343277 530.693542,231.987473 534.692322,231.635147 
	C538.158691,231.329742 542.263550,234.592896 542.953552,238.331985 
	C543.804138,242.941147 541.271729,246.007507 537.390137,247.190903 
	C531.179443,249.084412 529.246460,254.713287 525.940369,259.073517 
	C524.338074,261.186676 528.384521,264.692505 532.748718,264.778900 
	C539.575806,264.914062 546.407349,264.822510 553.236877,264.847504 
	C570.017456,264.908905 582.868408,274.537994 586.702148,290.693787 
	C588.281311,297.348602 587.445801,304.315613 586.104675,311.038361 
	C584.726013,317.949585 585.146912,324.972839 584.360413,331.921600 
	C582.374512,349.467316 574.655640,362.733856 557.520630,369.377411 
	C554.037659,370.727844 550.322937,370.596863 546.336670,371.529999 
M521.898987,279.039032 
	C527.861267,278.615875 533.818970,277.928772 539.786743,277.826538 
	C550.925415,277.635681 558.228882,284.897675 558.318726,295.968231 
	C558.383484,303.946442 558.310181,311.925751 558.303223,319.904572 
	C558.298584,325.257202 558.302429,330.609802 558.302429,336.035370 
	C559.384644,335.763000 559.487549,335.117371 559.657654,334.480621 
	C563.153442,321.398560 562.091675,308.025391 561.442993,294.822998 
	C560.784241,281.414948 553.524780,275.814758 539.994629,276.419739 
	C535.349304,276.627472 530.709900,276.965515 526.065735,277.203949 
	C524.185913,277.300507 522.449402,277.702362 520.089172,279.029510 
	C509.005981,278.449463 498.249786,280.520782 487.553162,283.078430 
	C498.797974,282.513824 509.964142,281.303467 521.898987,279.039032 
M571.363403,318.274384 
	C572.544189,320.256500 573.901611,320.099640 575.135620,318.423340 
	C575.811951,317.504700 575.416748,316.429840 574.463440,315.935425 
	C572.722107,315.032257 571.718384,315.870239 571.363403,318.274384 
M574.342896,302.576813 
	C572.163635,302.984283 571.643677,304.304077 572.816162,306.016510 
	C573.539246,307.072540 574.904175,306.984192 575.799683,306.097656 
	C577.260315,304.651703 576.538757,303.537415 574.342896,302.576813 
M569.750305,330.026611 
	C569.034058,332.544342 570.529480,332.857178 572.408264,332.568848 
	C573.482117,332.404053 574.293030,331.524719 573.903809,330.487122 
	C573.204163,328.622284 571.649780,329.077026 569.750305,330.026611 
z" style="filter:drop-shadow(2px 2px 6px blue)" />
<path fill="#000000" opacity="1.000000" stroke="none" 
	d="
M675.690796,164.368652 
	C671.200623,168.255341 669.747131,172.747192 669.976685,178.336075 
	C670.123047,181.898727 668.747314,185.513565 668.146667,189.120438 
	C667.652588,192.087219 668.673584,194.013062 671.981506,194.152496 
	C674.802795,194.271439 677.715210,194.933350 680.427246,194.452530 
	C690.057678,192.745148 699.267334,194.495056 708.429626,197.131165 
	C712.523621,198.309067 714.659790,201.268051 715.763306,205.210495 
	C716.801758,208.920380 713.461853,209.858261 711.778931,211.936920 
	C705.791992,219.331726 696.433716,219.944214 688.622925,223.636749 
	C686.031860,224.861649 683.687378,226.282059 681.452576,228.052551 
	C664.055908,241.834915 644.580933,250.365005 622.133606,251.250778 
	C620.806824,251.303131 619.445679,251.346436 618.148438,251.119843 
	C614.567322,250.494339 613.221436,247.602173 615.759644,245.004089 
	C620.023499,240.639755 624.674927,236.754410 629.961914,233.421402 
	C639.181763,227.609085 648.470764,221.951645 658.658875,216.995346 
	C656.648926,214.337769 654.278625,214.345139 652.083557,214.295273 
	C647.258301,214.185623 642.426025,214.377594 637.601379,214.255554 
	C632.728699,214.132278 631.389343,212.123215 632.900513,207.463409 
	C634.329956,203.055801 637.615845,199.864731 640.362549,196.327332 
	C643.239990,192.621552 645.281860,188.565918 646.231201,183.421036 
	C641.881958,183.454529 639.128052,185.994675 636.084839,187.655258 
	C629.376343,191.315842 623.065796,195.900650 616.037842,198.729630 
	C607.966736,201.978577 599.413330,204.489182 590.409546,203.373199 
	C585.660461,202.784576 584.668335,200.487625 587.639343,196.776321 
	C591.277710,192.231400 595.120239,187.850159 598.865601,183.390656 
	C600.289856,181.694870 602.085571,180.435410 604.059021,179.573746 
	C617.028381,173.910812 628.936768,166.289291 641.284119,159.482559 
	C645.567139,157.121460 648.847900,153.837448 651.150391,149.262833 
	C654.227600,143.149139 663.458191,142.455307 667.898926,147.537292 
	C668.646729,148.393005 669.483032,149.264206 670.455688,149.815521 
	C676.904175,153.470596 678.009705,156.285965 675.690796,164.368652 
z" style="filter:drop-shadow(2px 2px 6px red)" />
<path fill="#000000" opacity="1.000000" stroke="none" 
	d="
M539.271606,153.513382 
	C534.143188,160.794525 532.205383,168.853378 531.010620,177.129227 
	C530.392639,181.409470 528.283813,184.664322 524.713745,186.829239 
	C520.804260,189.200043 516.596008,189.270416 513.146057,186.104736 
	C509.926666,183.150665 507.302032,179.571213 509.659393,174.750702 
	C513.549072,166.796738 514.116089,157.811554 517.508667,149.684052 
	C518.448975,147.431305 518.192627,144.729736 517.431030,142.288177 
	C515.337646,135.576813 516.555664,129.534149 522.634521,125.833122 
	C529.844055,121.443787 531.388306,114.406631 532.881042,107.455338 
	C534.494141,99.943848 537.555237,93.324333 541.785767,87.076332 
	C544.140564,83.598564 546.906982,81.912247 551.009888,84.358383 
	C552.138489,85.031227 553.658813,85.153671 554.628845,85.969315 
	C564.046021,93.887680 575.808716,97.551254 586.280334,103.545509 
	C592.535217,107.126022 595.099060,114.173271 592.508057,120.981392 
	C590.565552,126.085533 586.057983,127.487541 580.617126,125.025810 
	C574.583862,122.296005 568.888428,118.781143 562.389282,117.106476 
	C558.212219,116.030159 551.973267,118.974686 549.888367,123.100418 
	C548.135925,126.568214 549.630859,130.307999 554.466675,133.417664 
	C560.196350,137.102188 566.229492,140.219894 572.793396,142.243500 
	C580.984680,144.768799 584.622498,154.568710 580.258728,161.603577 
	C577.949097,165.327011 575.008789,165.862625 571.313599,164.252670 
	C562.649536,160.477798 553.991394,156.688965 545.349915,152.862747 
	C543.285583,151.948700 541.308960,151.077347 539.271606,153.513382 
z" style="filter:drop-shadow(2px 2px 6px blue)" />
<path fill="#000000" opacity="1.000000" stroke="none" 
	d="
M353.803680,194.059708 
	C350.931427,198.572235 352.295563,202.826126 353.910522,206.808319 
	C355.592590,210.956024 359.440918,211.797729 364.027679,209.409332 
	C371.455505,205.541565 376.470764,198.960342 382.002472,193.008499 
	C385.969269,188.740463 393.374695,186.994888 398.169189,190.227905 
	C404.143036,194.256195 405.881104,198.056290 399.950958,203.763763 
	C393.488434,209.983658 387.639435,216.836548 381.389496,223.284073 
	C379.043427,225.704330 379.100555,227.654541 381.283112,230.130875 
	C386.409424,235.947128 392.213348,240.735260 399.305054,244.060837 
	C407.137817,247.733902 409.635773,256.659698 404.829468,262.639160 
	C401.030212,267.365845 394.247284,267.923035 389.944031,263.618591 
	C383.160675,256.833466 374.439636,252.724884 367.071228,246.760086 
	C365.873718,245.790710 364.405762,245.577530 362.833557,245.611130 
	C356.060944,245.755951 350.629608,242.818741 349.282471,236.391006 
	C347.398071,227.400040 340.878296,223.178070 334.094879,219.019638 
	C327.708923,215.104874 322.503876,210.161545 318.470276,203.885681 
	C316.265808,200.455841 316.410614,197.329834 319.264954,194.388702 
	C320.190277,193.435272 321.022247,192.272522 322.143097,191.645935 
	C333.365387,185.372360 340.599426,174.548172 350.575500,166.840622 
	C356.629303,162.163422 367.800842,165.251419 370.359039,172.522125 
	C371.373932,175.406540 370.240631,177.272797 368.366486,179.160675 
	C363.561554,184.000824 358.810181,188.894150 353.803680,194.059708 
z" style="filter:drop-shadow(2px 2px 6px red)"/>
<path fill="#000000" opacity="1.000000" stroke="none" 
	d="
M440.766541,114.548080 
	C443.269531,109.153030 444.563385,103.560219 448.367554,99.158409 
	C450.889465,96.240288 453.511963,93.642052 457.311584,92.248520 
	C463.699493,89.905731 466.538635,91.559113 467.114838,98.494881 
	C467.680084,105.298492 465.816406,111.719154 463.510315,117.955620 
	C462.205048,121.485420 461.219818,124.827820 462.243561,128.566849 
	C464.034424,135.107529 465.126770,141.802582 466.827026,148.384766 
	C470.949097,164.342255 471.857269,180.549088 467.869476,196.775497 
	C466.942657,200.546783 465.341034,201.349350 461.977753,198.871384 
	C451.793152,191.367691 448.845917,180.495193 447.928864,168.811066 
	C447.454987,162.773315 445.062225,157.186310 444.544678,151.192200 
	C444.458160,150.190567 443.530304,149.044312 442.674164,148.363617 
	C438.756653,145.249084 434.950073,142.115219 432.628235,137.484528 
	C431.795624,135.823990 429.931976,134.816864 428.145966,134.533218 
	C421.353729,133.454422 415.442749,129.755249 408.767609,128.281952 
	C404.961914,127.441994 403.428070,124.883026 404.857117,120.728867 
	C406.558319,115.783577 409.161011,111.425476 412.125153,107.182533 
	C414.704346,103.490562 417.330078,103.018494 420.693390,106.168816 
	C425.270386,110.455963 430.746460,113.198639 436.722839,114.999710 
	C438.027252,115.392815 439.293854,115.776695 440.766541,114.548080 
z" style="filter:drop-shadow(2px 2px 6px yellow)"/>
</svg>